<?xml version="1.0" encoding="UTF-8" standalone="no"?>
<!-- Created with Inkscape (http://www.inkscape.org/) -->

<svg
   xmlns:dc="http://purl.org/dc/elements/1.1/"
   xmlns:cc="http://creativecommons.org/ns#"
   xmlns:rdf="http://www.w3.org/1999/02/22-rdf-syntax-ns#"
   xmlns:svg="http://www.w3.org/2000/svg"
   xmlns="http://www.w3.org/2000/svg"
   xmlns:sodipodi="http://sodipodi.sourceforge.net/DTD/sodipodi-0.dtd"
   xmlns:inkscape="http://www.inkscape.org/namespaces/inkscape"
   width="210mm"
   height="297mm"
   viewBox="0 0 744.09448819 1052.3622047"
   id="svg2"
   version="1.1"
   inkscape:version="0.91 r13725"
   sodipodi:docname="tapis.svg">
  <defs
     id="defs4">
    <clipPath
       id="clipPath4152"
       clipPathUnits="userSpaceOnUse">
      <path
         inkscape:connector-curvature="0"
         id="path4154"
         d="M 0,800 800,800 800,0 0,0 0,800 Z" />
    </clipPath>
    <clipPath
       id="clipPath4160"
       clipPathUnits="userSpaceOnUse">
      <path
         inkscape:connector-curvature="0"
         id="path4162"
         d="m 309.802,539.639 264.271,0 0,-115.495 -264.271,0 0,115.495 z" />
    </clipPath>
    <clipPath
       id="clipPath4212"
       clipPathUnits="userSpaceOnUse">
      <path
         inkscape:connector-curvature="0"
         id="path4214"
         d="M 0,800 800,800 800,0 0,0 0,800 Z" />
    </clipPath>
    <clipPath
       id="clipPath4220"
       clipPathUnits="userSpaceOnUse">
      <path
         inkscape:connector-curvature="0"
         id="path4222"
         d="m 34.7275,703.87 181.9345,0 0,-374.244 -181.9345,0 0,374.244 z" />
    </clipPath>
    <clipPath
       id="clipPath4240"
       clipPathUnits="userSpaceOnUse">
      <path
         inkscape:connector-curvature="0"
         id="path4242"
         d="M 0,800 800,800 800,0 0,0 0,800 Z" />
    </clipPath>
    <clipPath
       id="clipPath4248"
       clipPathUnits="userSpaceOnUse">
      <path
         inkscape:connector-curvature="0"
         id="path4250"
         d="m 54.707,632.882 12.2051,0 0,-205.609 -12.2051,0 0,205.609 z" />
    </clipPath>
    <clipPath
       id="clipPath4264"
       clipPathUnits="userSpaceOnUse">
      <path
         inkscape:connector-curvature="0"
         id="path4266"
         d="M 0,800 800,800 800,0 0,0 0,800 Z" />
    </clipPath>
    <clipPath
       id="clipPath4284"
       clipPathUnits="userSpaceOnUse">
      <path
         inkscape:connector-curvature="0"
         id="path4286"
         d="m 66.9121,698.337 146.4419,0 0,-146.441 -146.4419,0 0,146.441 z" />
    </clipPath>
    <clipPath
       id="clipPath4308"
       clipPathUnits="userSpaceOnUse">
      <path
         inkscape:connector-curvature="0"
         id="path4310"
         d="m 68.0215,711.651 146.4425,0 0,-146.442 -146.4425,0 0,146.442 z" />
    </clipPath>
    <clipPath
       id="clipPath4328"
       clipPathUnits="userSpaceOnUse">
      <path
         inkscape:connector-curvature="0"
         id="path4330"
         d="m 204.478,632.882 12.206,0 0,-205.609 -12.206,0 0,205.609 z" />
    </clipPath>
    <clipPath
       id="clipPath4364"
       clipPathUnits="userSpaceOnUse">
      <path
         inkscape:connector-curvature="0"
         id="path4366"
         d="M 0,800 800,800 800,0 0,0 0,800 Z" />
    </clipPath>
    <clipPath
       id="clipPath4372"
       clipPathUnits="userSpaceOnUse">
      <path
         inkscape:connector-curvature="0"
         id="path4374"
         d="m 89.6191,407.771 380.2349,0 0,-343.0464 -380.2349,0 0,343.0464 z" />
    </clipPath>
    <clipPath
       id="clipPath4436"
       clipPathUnits="userSpaceOnUse">
      <path
         inkscape:connector-curvature="0"
         id="path4438"
         d="m 34.7271,267.5 264.6489,0 0,-137 -264.6489,0 0,137 z" />
    </clipPath>
    <clipPath
       id="clipPath4474"
       clipPathUnits="userSpaceOnUse">
      <path
         inkscape:connector-curvature="0"
         id="path4476"
         d="m 530.142,384.942 195.89,0 0,-315.6022 -195.89,0 0,315.6022 z" />
    </clipPath>
    <clipPath
       id="clipPath4490"
       clipPathUnits="userSpaceOnUse">
      <path
         inkscape:connector-curvature="0"
         id="path4492"
         d="m 541.514,80.712 195.89,0 0,315.602 -195.89,0 0,-315.602 z" />
    </clipPath>
    <clipPath
       id="clipPath4570"
       clipPathUnits="userSpaceOnUse">
      <path
         inkscape:connector-curvature="0"
         id="path4572"
         d="M 0,800 800,800 800,0 0,0 0,800 Z" />
    </clipPath>
    <clipPath
       id="clipPath4578"
       clipPathUnits="userSpaceOnUse">
      <path
         inkscape:connector-curvature="0"
         id="path4580"
         d="m 623.087,517.026 129.103,0 0,-171.762 -129.103,0 0,171.762 z" />
    </clipPath>
    <clipPath
       id="clipPath4726"
       clipPathUnits="userSpaceOnUse">
      <path
         inkscape:connector-curvature="0"
         id="path4728"
         d="m 252.962,746.721 57.334,0 0,-183.142 -57.334,0 0,183.142 z" />
    </clipPath>
  </defs>
  <sodipodi:namedview
     id="base"
     pagecolor="#ffffff"
     bordercolor="#666666"
     borderopacity="1.0"
     inkscape:pageopacity="0.0"
     inkscape:pageshadow="2"
     inkscape:zoom="0.98994949"
     inkscape:cx="332.30586"
     inkscape:cy="213.25893"
     inkscape:document-units="px"
     inkscape:current-layer="layer1"
     showgrid="false"
     inkscape:window-width="1600"
     inkscape:window-height="837"
     inkscape:window-x="-8"
     inkscape:window-y="-8"
     inkscape:window-maximized="1" />
  <metadata
     id="metadata7">
    <rdf:RDF>
      <cc:Work
         rdf:about="">
        <dc:format>image/svg+xml</dc:format>
        <dc:type
           rdf:resource="http://purl.org/dc/dcmitype/StillImage" />
        <dc:title></dc:title>
      </cc:Work>
    </rdf:RDF>
  </metadata>
  <g
     inkscape:label="Calque 1"
     inkscape:groupmode="layer"
     id="layer1">
    <path
       inkscape:connector-curvature="0"
       id="path4418"
       style="fill:#a4a9ad;fill-opacity:1;fill-rule:nonzero;stroke:none"
       d="m 478.41779,674.62535 -364.0725,0 0,-40.2487 364.0725,0 0,40.2487 z" />
    <path
       inkscape:connector-curvature="0"
       id="path4420"
       style="fill:#4b545d;fill-opacity:1;fill-rule:nonzero;stroke:none"
       d="m 478.41779,665.04285 -364.0725,0 0,-6.0837 364.0725,0 0,6.0837 z" />
    <path
       inkscape:connector-curvature="0"
       id="path4424"
       style="fill:#333e48;fill-opacity:1;fill-rule:nonzero;stroke:none"
       d="m 75.500414,672.89465 c 0,4.125 3.375,7.5 7.5,7.5 l 23.844996,0 c 4.12375,0 7.5,-3.375 7.5,-7.5 l 0,-36.785 c 0,-4.125 -3.37625,-7.5 -7.5,-7.5 l -23.844996,0 c -4.125,0 -7.5,3.375 -7.5,7.5 l 0,36.785 z" />
    <path
       inkscape:connector-curvature="0"
       id="path4428"
       style="fill:#333e48;fill-opacity:1;fill-rule:nonzero;stroke:none"
       d="m 478.41791,672.89465 c 0,4.125 3.375,7.5 7.5,7.5 l 57.37625,0 c 4.125,0 7.5,-3.375 7.5,-7.5 l 0,-45.1463 c 0,-4.125 -3.375,-7.5 -7.5,-7.5 l -57.37625,0 c -4.125,0 -7.5,3.375 -7.5,7.5 l 0,45.1463 z" />
  </g>
</svg>
